<svg width="48" height="48" viewBox="0 0 43 49" fill="none" xmlns="http://www.w3.org/2000/svg">
  <rect width="43" height="49" rx="10" fill="#030712"/>
  <path d="M24.1371 14.7027C24.1371 16.3192 22.8266 17.6296 21.2101 17.6296C19.5936 17.6296 18.2832 16.3192 18.2832 14.7027V4.59151C18.2832 2.97502 19.5936 1.66459 21.2101 1.66459C22.8266 1.66459 24.1371 2.97502 24.1371 4.59151V14.7027Z" fill="white"/>
  <path d="M40.1143 32.2313C41.5143 33.0395 41.9939 34.8296 41.1857 36.2295C40.3774 37.6295 38.5873 38.1091 37.1874 37.3009L28.4132 32.235C27.0132 31.4268 26.5336 29.6367 27.3418 28.2368C28.1501 26.8368 29.9402 26.3572 31.3401 27.1655L40.1143 32.2313Z" fill="white"/>
  <path d="M11.258 27.0706C12.6579 26.2623 14.448 26.742 15.2563 28.1419C16.0645 29.5418 15.5849 31.3319 14.1849 32.1401L5.24635 37.3009C3.84642 38.1091 2.05634 37.6295 1.24809 36.2295C0.439844 34.8296 0.919492 33.0395 2.31942 32.2313L11.258 27.0706Z" fill="white"/>
  <path d="M31.5516 21.7344C30.1516 22.5427 28.3616 22.063 27.5533 20.6631C26.7451 19.2632 27.2247 17.4731 28.6246 16.6648L37.3812 11.6092C38.7811 10.801 40.5712 11.2806 41.3794 12.6806C42.1877 14.0805 41.708 15.8706 40.3081 16.6788L31.5516 21.7344Z" fill="white"/>
  <path d="M24.3598 44.3366C24.3598 45.9531 23.0494 47.2635 21.4329 47.2635C19.8164 47.2635 18.506 45.9531 18.506 44.3366L18.506 34.205C18.506 32.5885 19.8164 31.2781 21.4329 31.2781C23.0494 31.2781 24.3599 32.5885 24.3599 34.205L24.3598 44.3366Z" fill="white"/>
  <path d="M14.401 16.7654C15.8009 17.5736 16.2806 19.3637 15.4723 20.7637C14.6641 22.1636 12.874 22.6432 11.4741 21.835L2.53546 16.6743C1.13553 15.866 0.655882 14.076 1.46413 12.676C2.27238 11.2761 4.06246 10.7965 5.46238 11.6047L14.401 16.7654Z" fill="white"/>
</svg>
