<svg width="48" height="48" viewBox="0 0 37 50" fill="none" xmlns="http://www.w3.org/2000/svg">
  <rect width="37" height="50" rx="9" fill="#030712"/>
  <path d="M20.9276 16.0242C20.9276 17.4756 19.7511 18.6521 18.2998 18.6521C16.8484 18.6521 15.6719 17.4756 15.6719 16.0242V6.94608C15.6719 5.49474 16.8484 4.3182 18.2998 4.3182C19.7511 4.3182 20.9276 5.49474 20.9276 6.94608V16.0242Z" fill="#007FFE"/>
  <path d="M13.0515 25.0006C14.6736 25.9371 15.6729 27.6828 15.6729 29.5559L15.6729 43.0535C15.6729 44.5049 16.8495 45.6814 18.3008 45.6814C19.7522 45.6814 20.9287 44.5049 20.9287 43.0535V28.6729C20.9287 27.3416 21.639 26.1114 22.7919 25.4458L35.3442 18.1987C36.6011 17.473 37.0317 15.8658 36.3061 14.6089C35.5804 13.352 33.9732 12.9214 32.7163 13.6471L20.1465 20.9042C19.0084 21.5613 17.6061 21.5613 16.468 20.9042L3.94227 13.6725C2.68537 12.9468 1.07818 13.3775 0.352509 14.6344C-0.373161 15.8913 0.0574821 17.4985 1.31438 18.2241L13.0515 25.0006Z" fill="white"/>
  <path d="M35.2751 31.7616C36.532 32.4873 36.9626 34.0945 36.237 35.3514C35.5113 36.6083 33.9041 37.0389 32.6472 36.3133L24.7695 31.765C23.5126 31.0393 23.0819 29.4322 23.8076 28.1753C24.5333 26.9184 26.1404 26.4877 27.3973 27.2134L35.2751 31.7616Z" fill="#007FFE"/>
  <path d="M9.36901 27.1282C10.6259 26.4025 12.2331 26.8332 12.9588 28.0901C13.6844 29.347 13.2538 30.9541 11.9969 31.6798L3.97156 36.3133C2.71466 37.0389 1.10748 36.6083 0.381805 35.3514C-0.343864 34.0945 0.0867791 32.4873 1.34367 31.7616L9.36901 27.1282Z" fill="#007FFE"/>
</svg>
