<svg width="32" height="32" viewBox="0 0 42 50" fill="none" xmlns="http://www.w3.org/2000/svg">
  <rect width="42" height="50" rx="8" fill="#030712"/>
  <path d="M21.1231 15.9405C21.1231 17.4054 19.9356 18.5929 18.4707 18.5929C17.0059 18.5929 15.8184 17.4054 15.8184 15.9405V6.77784C15.8184 5.31299 17.0059 4.12549 18.4707 4.12549C19.9356 4.12549 21.1231 5.31299 21.1231 6.77784V15.9405Z" fill="#34D186"/>
  <path d="M13.173 25.001C14.8103 25.9463 15.8189 27.7083 15.8189 29.5988L15.8189 43.2222C15.8189 44.687 17.0064 45.8745 18.4713 45.8745C19.9361 45.8745 21.1236 44.687 21.1236 43.2222V28.7076C21.1236 27.3639 21.8405 26.1223 23.0042 25.4504L35.6734 18.1358C36.942 17.4034 37.3766 15.7812 36.6442 14.5126C35.9118 13.244 34.2896 12.8094 33.021 13.5418L20.3342 20.8666C19.1855 21.5298 17.7701 21.5298 16.6214 20.8666L3.97898 13.5675C2.71038 12.835 1.08822 13.2697 0.355792 14.5383C-0.376637 15.8069 0.0580175 17.4291 1.32662 18.1615L13.173 25.001Z" fill="#34D186"/>
  <path d="M35.6039 31.8248C36.8725 32.5573 37.3072 34.1794 36.5748 35.448C35.8423 36.7166 34.2202 37.1513 32.9516 36.4189L25.0004 31.8283C23.7318 31.0958 23.2972 29.4737 24.0296 28.2051C24.762 26.9365 26.3842 26.5018 27.6528 27.2342L35.6039 31.8248Z" fill="#34D186"/>
  <path d="M9.45405 27.1482C10.7227 26.4158 12.3448 26.8505 13.0772 28.1191C13.8097 29.3877 13.375 31.0098 12.1064 31.7423L4.00633 36.4189C2.73772 37.1513 1.11556 36.7166 0.383135 35.448C-0.349292 34.1794 0.0853614 32.5573 1.35396 31.8248L9.45405 27.1482Z" fill="#34D186"/>
</svg>
